<?xml version="1.0" encoding="UTF-8"?>
<svg id="Layer_1" data-name="Layer 1" xmlns="http://www.w3.org/2000/svg" viewBox="0 0 1000 1000">
  <defs>
    <style>
      .cls-1 {
        fill: #fff;
      }

      .cls-2 {
        fill: #fb9f24;
      }

      .cls-3 {
        stroke-width: 6.14px;
      }

      .cls-3, .cls-4, .cls-5, .cls-6, .cls-7, .cls-8, .cls-9 {
        fill: none;
      }

      .cls-3, .cls-4, .cls-5, .cls-6, .cls-8, .cls-9 {
        stroke: #fff;
        stroke-linecap: round;
        stroke-linejoin: round;
      }

      .cls-10 {
        fill: #d0dafb;
      }

      .cls-11 {
        fill: #ffb742;
      }

      .cls-12 {
        fill: #d95a6d;
      }

      .cls-4 {
        stroke-width: 4.11px;
      }

      .cls-5 {
        stroke-width: 3.94px;
      }

      .cls-6 {
        stroke-width: 2.54px;
      }

      .cls-13 {
        fill: #f1f3ff;
      }

      .cls-14 {
        fill: #8288ec;
      }

      .cls-7 {
        stroke: #6c71c2;
        stroke-miterlimit: 10;
        stroke-width: 5.26px;
      }

      .cls-15 {
        fill: #ed9622;
      }

      .cls-8 {
        stroke-width: 3.4px;
      }

      .cls-16 {
        fill: #6c71c2;
      }

      .cls-9 {
        stroke-width: 4.92px;
      }

      .cls-17 {
        fill: #ee7d8d;
      }
    </style>
  </defs>
  <path class="cls-13" d="M973.02,292.32c13.18,38.71,20.94,77.51,22.72,112.08,6.7,130.06-11.67,273.58-94.63,378.87-169.48,215.1-567.09,184.77-755.49,15.76C-2.81,665.88-31.86,445.31,45.32,265.6,112.31,109.6,247.96,97,395.98,138.86c54.12,15.31,110.9,17.95,165.66,4.3,55.77-13.91,100.14-55.99,155.8-69.19,57.87-13.73,116.6,12.5,157.34,53.3,43.8,43.87,78.31,106.52,98.25,165.05Z"/>
  <g>
    <rect class="cls-10" x="410.36" y="387.12" width="456.75" height="558.88" rx="11.52" ry="11.52"/>
    <path class="cls-1" d="M429.09,387.12h419.3c6.26,0,11.34,5.08,11.34,11.34V934.66c0,6.26-5.08,11.34-11.34,11.34H429.09c-6.26,0-11.34-5.08-11.34-11.34V398.46c0-6.26,5.08-11.34,11.34-11.34Z"/>
    <rect class="cls-10" x="410.36" y="415.49" width="456.75" height="5.05"/>
    <rect class="cls-10" x="410.36" y="491.2" width="456.75" height="6.38"/>
    <rect class="cls-10" x="410.36" y="872.24" width="456.75" height="6.38"/>
    <rect class="cls-10" x="729.16" y="872.24" width="6.03" height="73.76"/>
    <circle class="cls-10" cx="638.74" cy="679.06" r="139.01" transform="translate(-293.09 650.55) rotate(-45)"/>
    <circle class="cls-1" cx="638.74" cy="679.06" r="130.5" transform="translate(-133.87 1200.78) rotate(-80.78)"/>
    <circle class="cls-1" cx="638.74" cy="679.06" r="130.5" transform="translate(-133.87 1200.78) rotate(-80.78)"/>
    <circle class="cls-10" cx="638.74" cy="679.06" r="102.13" transform="translate(-160.15 1159.57) rotate(-77.78)"/>
    <circle class="cls-14" cx="638.74" cy="679.06" r="95.88" transform="translate(-133.87 1200.78) rotate(-80.78)"/>
    <path class="cls-16" d="M724.18,635.59c2.71,8.87,4.18,18.29,4.18,28.05,0,52.95-42.93,95.88-95.88,95.88-37.29,0-69.59-21.31-85.44-52.4,12,39.26,48.51,67.83,91.7,67.83,52.95,0,95.88-42.93,95.88-95.88,0-15.66-3.78-30.42-10.43-43.48Z"/>
    <g>
      <path class="cls-1" d="M583.24,618.89c-16.44,14.23-23.29,33.23-15.32,42.45,7.98,9.22,27.77,5.16,44.21-9.07,16.44-14.23,23.3-33.23,15.32-42.45-7.98-9.22-27.77-5.16-44.21,9.07Z"/>
      <path class="cls-1" d="M573.09,679.06c0,3.31-2.68,5.98-5.98,5.98s-5.98-2.68-5.98-5.98,2.68-5.98,5.98-5.98,5.98,2.68,5.98,5.98Z"/>
    </g>
    <g>
      <circle class="cls-10" cx="638.74" cy="456.9" r="29.43" transform="translate(85.43 1014.2) rotate(-80.78)"/>
      <path class="cls-1" d="M662.49,456.9c0,13.12-10.63,23.75-23.75,23.75s-23.75-10.63-23.75-23.75,10.63-23.75,23.75-23.75,23.75,10.63,23.75,23.75Z"/>
      <circle class="cls-10" cx="626.96" cy="445.22" r="2.84"/>
    </g>
    <rect class="cls-10" x="526.68" y="418.02" width="4.26" height="76.38"/>
    <rect class="cls-10" x="410.36" y="452.73" width="118.44" height="3.28"/>
    <path class="cls-10" d="M493.57,461.24h-47.96c-3.79,0-6.87-3.08-6.87-6.87h61.7c0,3.79-3.08,6.87-6.87,6.87Z"/>
    <g>
      <rect class="cls-14" x="725.76" y="433.15" width="118.62" height="42.99"/>
      <path class="cls-16" d="M840.1,433.15c-3.17,20.61-20.93,36.41-42.43,36.41h-71.91v6.57h118.62v-42.99h-4.28Z"/>
    </g>
  </g>
  <g>
    <g>
      <path class="cls-1" d="M413.88,260.95H99.6c-3.54,0-6.43-2.89-6.43-6.43h0c0-3.54,2.89-6.43,6.43-6.43H413.88c3.54,0,6.43,2.89,6.43,6.43h0c0,3.54-2.89,6.43-6.43,6.43Z"/>
      <path class="cls-10" d="M413.88,259.05H99.6c-3.21,0-5.86-2.39-6.33-5.47-.05,.31-.1,.63-.1,.95,0,3.54,2.89,6.43,6.43,6.43H413.88c3.54,0,6.43-2.89,6.43-6.43,0-.33-.05-.64-.1-.95-.47,3.08-3.12,5.47-6.33,5.47Z"/>
    </g>
    <g>
      <path class="cls-12" d="M327.35,336.33h9.22c5.59,0,10.13,4.54,10.13,10.13v199.11c0,3.88-3.15,7.03-7.03,7.03h-12.33v-216.27h0Z"/>
      <path class="cls-10" d="M381.98,345.75l-122.31-49.45v-17.55c12.6-2.46,21.84-13.32,21.84-26.45,0-14.93-12.15-27.07-27.08-27.07-12.01,0-22.71,8.05-26.03,19.59-.45,1.56,.45,3.19,2.01,3.63,1.53,.42,3.18-.45,3.63-2.01,2.6-9.03,10.97-15.34,20.38-15.34,11.69,0,21.2,9.51,21.2,21.2,0,11-8.25,20.08-19.19,21.11-1.48,.14-2.55,1.37-2.61,2.82,0,.07-.04,.14-.04,.21v19.86l-122.31,49.45c-1.3,.52-2.05,1.9-1.78,3.28,.27,1.38,1.48,2.37,2.88,2.37h248.29c1.41,0,2.61-.99,2.88-2.37,.27-1.38-.48-2.76-1.78-3.28Zm-125.24-.22h-109.05l109.05-44.09,109.05,44.09h-109.05Z"/>
      <path class="cls-17" d="M172.04,336.33h156.35c4.25,0,7.7,3.45,7.7,7.7v259.53c0,4.25-3.45,7.7-7.7,7.7H172.04c-4.25,0-7.7-3.45-7.7-7.7V344.03c0-4.25,3.45-7.7,7.7-7.7Z"/>
      <g>
        <rect class="cls-12" x="164.34" y="572.62" width="171.74" height="10.84"/>
        <rect class="cls-12" x="164.34" y="547.18" width="171.74" height="10.84"/>
      </g>
      <g>
        <line class="cls-3" x1="175.27" y1="346.7" x2="231.38" y2="346.7"/>
        <line class="cls-3" x1="242.49" y1="346.7" x2="256.74" y2="346.7"/>
      </g>
    </g>
  </g>
  <g>
    <g>
      <path class="cls-16" d="M741.47,160.05h16.98c1.52,0,2.76,1.24,2.76,2.76v7.85h-22.5v-7.85c0-1.52,1.24-2.76,2.76-2.76Z"/>
      <path class="cls-14" d="M736.67,170.67h26.58c1.85,0,3.36,1.5,3.36,3.36v7.25h-33.29v-7.25c0-1.85,1.5-3.36,3.36-3.36Z"/>
      <g>
        <rect class="cls-16" x="738.47" y="170.67" width="1.3" height="10.61"/>
        <rect class="cls-16" x="743.89" y="170.67" width="1.3" height="10.61"/>
        <rect class="cls-16" x="749.31" y="170.67" width="1.3" height="10.61"/>
        <rect class="cls-16" x="754.73" y="170.67" width="1.3" height="10.61"/>
        <rect class="cls-16" x="760.15" y="170.67" width="1.3" height="10.61"/>
      </g>
      <path class="cls-11" d="M763.67,181.28h-27.43s-56.1,31.69-24.9,133.08c.75,2.43,3.03,4.1,5.57,4.1h66.09c2.54,0,4.82-1.67,5.57-4.1,31.24-101.39-24.9-133.08-24.9-133.08Zm16.85,98.29c-4.63,.45-9.75-13.33-11.44-30.78-1.69-17.45,.68-31.95,5.31-32.4,4.63-.45,9.75,13.33,11.44,30.78,1.69,17.45-.68,31.95-5.31,32.4Z"/>
      <g>
        <path class="cls-15" d="M776.01,275.87c-3.07-5.18-5.78-15.28-6.93-27.08-1.69-17.45,.68-31.96,5.31-32.4,.8-.08,1.61,.29,2.42,1.01-1.47-2.48-3.02-3.85-4.52-3.7-4.63,.45-7,14.96-5.31,32.4,1.4,14.44,5.15,26.34,9.03,29.77Z"/>
        <path class="cls-15" d="M777.89,194.25c13.64,18.28,28,54.37,8.58,117.42-.75,2.43-3.03,4.1-5.57,4.1h-66.09c-1.21,0-2.34-.4-3.3-1.06,.86,2.22,2.99,3.75,5.4,3.75h66.09c2.54,0,4.82-1.67,5.57-4.1,20.43-66.3,3.49-102.79-10.68-120.11Z"/>
      </g>
      <path class="cls-2" d="M751.79,197.47h-17.04c-.95,0-1.84,.39-2.47,1.11-5.34,6.16-29.03,38.18-10.47,103.22,.4,1.41,1.72,2.41,3.18,2.41h41.58c2.29,0,3.88-2.26,3.08-4.4-5.58-14.88-22.47-64.32-14.65-98.43,.46-2.01-1.14-3.92-3.21-3.92Z"/>
      <path class="cls-5" d="M712.74,218.95c-.51,1.68-.92,3.41-1.22,5.18"/>
      <path class="cls-5" d="M730.23,191.46s-9.78,8.92-15.4,21.82"/>
    </g>
    <g>
      <path class="cls-1" d="M839.9,331.01h-303.07c-3.41,0-6.2-2.79-6.2-6.2h0c0-3.41,2.79-6.2,6.2-6.2h303.07c3.41,0,6.2,2.79,6.2,6.2h0c0,3.41-2.79,6.2-6.2,6.2Z"/>
      <path class="cls-10" d="M839.9,329.17h-303.07c-3.09,0-5.65-2.31-6.1-5.28-.05,.3-.09,.61-.09,.92,0,3.41,2.79,6.2,6.2,6.2h303.07c3.41,0,6.2-2.79,6.2-6.2,0-.31-.05-.62-.09-.92-.45,2.97-3.01,5.28-6.11,5.28Z"/>
    </g>
    <g>
      <path class="cls-16" d="M667.48,311.85c-.39,3.78-3.57,6.61-7.39,6.61h-10.85s-11.31-12.9-5.23-50.87c4.53-28.42,7.85-62.75,6.96-83.61h5.3l.67,19.41c.6,16.58,2.62,33.13,6.75,49.21,6.22,24.18,4.95,48.04,3.78,59.25Z"/>
      <path class="cls-14" d="M644.01,267.58c4.53-28.42,7.85-62.75,6.96-83.61h-78.55l-.71,23.01c-.46,15.87-3.11,31.61-8.06,46.67-5.55,16.86-11.38,41.68-5.62,59.85,.95,3,3.82,4.95,6.96,4.95h84.25s-11.31-12.9-5.23-50.87Zm-6.22-52.78c0,1.98-1.63,3.61-3.64,3.61h-48.19c-2.01,0-3.64-1.63-3.64-3.61v-8.38c0-1.98,1.63-3.61,3.64-3.61h48.19c2.02,0,3.64,1.63,3.64,3.61v8.38Z"/>
      <path class="cls-16" d="M569.21,315.65c-3.15,0-6.01-1.95-6.96-4.95-5.76-18.17,.07-42.99,5.62-59.85,4.95-15.06,7.6-30.79,8.06-46.67l.62-20.2h-4.13l-.71,23.01c-.46,15.87-3.11,31.61-8.06,46.67-5.55,16.86-11.38,41.68-5.62,59.85,.95,3,3.82,4.95,6.96,4.95h84.25s-.76-.88-1.77-2.81h-78.26Z"/>
      <path class="cls-1" d="M650.97,183.98h-78.55l.25-8.59c.14-3.99,3.39-7.18,7.39-7.18h68.51c1.38,3.25,2.12,8.73,2.4,15.77Z"/>
      <path class="cls-10" d="M583.82,168.21h-3.76c-3.99,0-7.25,3.18-7.39,7.18l-.25,8.59h3.76l.25-8.59c.14-3.99,3.39-7.18,7.39-7.18Z"/>
      <path class="cls-10" d="M656.28,183.98h-5.3c-.28-7.04-1.03-12.51-2.4-15.77,3.99,0,7.25,3.15,7.39,7.11l.32,8.66Z"/>
      <path class="cls-10" d="M642.21,206.42v8.38c0,1.98-1.76,3.61-3.93,3.61h-52.03c-2.18,0-3.93-1.63-3.93-3.61v-8.38c0-1.98,1.76-3.61,3.93-3.61h52.03c2.18,0,3.93,1.63,3.93,3.61Z"/>
      <path class="cls-8" d="M577.11,193.51s-1.12,28.76-3.29,37.88"/>
      <line class="cls-8" x1="573.03" y1="237.4" x2="571.23" y2="244.11"/>
    </g>
    <g>
      <path class="cls-1" d="M708.61,318.46h-45.5c-3.03,0-5.65-2.09-6.29-5.06-3.69-17.05-13.12-73.72,12.83-116.83,1.39-2.37,1.88-5.16,1.17-7.83l-1.55-3.21c-.2-.41-.25-.87-.14-1.3l3.95-16.93h25.59l3.95,16.93c.08,.45,.04,.9-.15,1.32l-1.54,3.2c-.71,2.67-.23,5.46,1.17,7.83,25.95,43.11,16.51,99.78,12.83,116.83-.64,2.97-3.26,5.06-6.29,5.06Z"/>
      <path class="cls-10" d="M702.08,196.57c-1.39-2.37-1.88-5.16-1.17-7.83l1.54-3.2c.19-.41,.23-.87,.15-1.32l-3.95-16.93h-2.51l3.3,14.13c.08,.45,.04,.9-.15,1.32l-1.54,3.2c-.72,2.67-.23,5.46,1.17,7.83,25.95,43.11,16.51,99.78,12.83,116.83-.64,2.97-3.26,5.06-6.29,5.06h-45.5c-.86,0-1.67-.2-2.42-.51,1.11,1.99,3.2,3.31,5.58,3.31h45.5c3.03,0,5.65-2.09,6.29-5.06,3.69-17.05,13.12-73.72-12.83-116.83Z"/>
      <rect class="cls-11" x="670.88" y="149.84" width="29.95" height="17.45" rx="2.73" ry="2.73"/>
      <g>
        <rect class="cls-2" x="673.89" y="149.84" width="1.92" height="17.45"/>
        <rect class="cls-2" x="678.29" y="149.84" width="1.92" height="17.45"/>
        <rect class="cls-2" x="682.69" y="149.84" width="1.92" height="17.45"/>
        <rect class="cls-2" x="687.1" y="149.84" width="1.92" height="17.45"/>
        <rect class="cls-2" x="691.5" y="149.84" width="1.92" height="17.45"/>
        <rect class="cls-2" x="695.9" y="149.84" width="1.92" height="17.45"/>
      </g>
      <ellipse class="cls-10" cx="685.86" cy="260.57" rx="20.54" ry="45.16"/>
      <path class="cls-11" d="M718.22,121.63v13.28s-4.48,.34-9.22,2.3c-1.54,.64-3.12,1.43-4.55,2.48-2.22,1.62-4.18,3.73-5.27,6.55-.45,1.09-.79,2.26-.94,3.58h-23.41v-11.18c0-.73-.25-1.43-.7-2l-3.9-4.86c-.71-.89-.77-2.14-.13-3.08l3.96-5.91c.48-.72,1.3-1.16,2.17-1.16h42Z"/>
      <path class="cls-2" d="M718.2,121.66h4.63c.63,0,1.13,.51,1.13,1.13v10.94c0,.63-.51,1.13-1.13,1.13h-4.63v-13.21h0Z"/>
      <path class="cls-15" d="M723.97,123.86h1.09c.27,0,.48,.22,.48,.48v7.83c0,.27-.22,.48-.48,.48h-1.09v-8.79h0Z"/>
      <path class="cls-2" d="M721.08,157.98l-2.86,1.69s-8.17-4.33-13.21-18.36c.87-.6,2.6-1.73,4.21-2.3,.64,3.46,3.01,11.25,11.85,18.97Z"/>
      <rect class="cls-10" x="684.62" y="187.16" width="14.88" height="3.04"/>
      <path class="cls-2" d="M699.18,146.24c-.45,1.09-.79,2.26-.94,3.58h-23.41v-3.58h24.35Z"/>
      <path class="cls-15" d="M709.23,139.02c-1.62,.56-3.35,1.69-4.21,2.3-.19-.53-.38-1.05-.56-1.62,1.43-1.05,3.01-1.84,4.55-2.48,0,0,.04,.68,.23,1.81Z"/>
    </g>
  </g>
  <g>
    <g>
      <g>
        <path class="cls-17" d="M354.4,753.83h-100.84c-7.81,0-14.21-6.39-14.21-14.21h0c0-7.81,6.39-14.21,14.21-14.21h100.84c7.81,0,14.21,6.39,14.21,14.21h0c0,7.81-6.39,14.21-14.21,14.21Z"/>
        <path class="cls-12" d="M365.16,734.64h-102.57c-1.89,0-3.44,1.55-3.44,3.44h0c0,1.89,1.55,3.44,3.44,3.44h102.57c1.89,0,3.44-1.55,3.44-3.44h0c0-1.89-1.55-3.44-3.44-3.44Z"/>
      </g>
      <g>
        <path class="cls-11" d="M354.4,725.42h-100.84c-7.81,0-14.21-6.39-14.21-14.21h0c0-7.81,6.39-14.21,14.21-14.21h100.84c7.81,0,14.21,6.39,14.21,14.21h0c0,7.81-6.39,14.21-14.21,14.21Z"/>
        <path class="cls-2" d="M365.16,706.23h-102.57c-1.89,0-3.44,1.55-3.44,3.44h0c0,1.89,1.55,3.44,3.44,3.44h102.57c1.89,0,3.44-1.55,3.44-3.44h0c0-1.89-1.55-3.44-3.44-3.44Z"/>
      </g>
      <g>
        <path class="cls-14" d="M354.4,697h-100.84c-7.81,0-14.21-6.39-14.21-14.21h0c0-7.81,6.39-14.21,14.21-14.21h100.84c7.81,0,14.21,6.39,14.21,14.21h0c0,7.81-6.39,14.21-14.21,14.21Z"/>
        <path class="cls-16" d="M365.16,677.82h-102.57c-1.89,0-3.44,1.55-3.44,3.44h0c0,1.89,1.55,3.44,3.44,3.44h102.57c1.89,0,3.44-1.55,3.44-3.44h0c0-1.89-1.55-3.44-3.44-3.44Z"/>
      </g>
      <g>
        <line class="cls-6" x1="254.01" y1="671.69" x2="281.11" y2="671.69"/>
        <line class="cls-6" x1="285.71" y1="671.69" x2="292.64" y2="671.69"/>
      </g>
      <g>
        <line class="cls-6" x1="251.94" y1="700.67" x2="279.05" y2="700.67"/>
        <line class="cls-6" x1="283.64" y1="700.67" x2="290.58" y2="700.67"/>
      </g>
      <g>
        <line class="cls-6" x1="250.54" y1="729.34" x2="277.65" y2="729.34"/>
        <line class="cls-6" x1="282.24" y1="729.34" x2="289.18" y2="729.34"/>
      </g>
    </g>
    <g>
      <g>
        <rect class="cls-17" x="185.45" y="867.32" width="239.95" height="57.57" rx="26.62" ry="26.62"/>
        <path class="cls-12" d="M228.67,886.01h190.3c3.55,0,6.44,2.89,6.44,6.44v1.05c0,3.56-2.89,6.44-6.44,6.44H228.67c-3.56,0-6.44-2.89-6.44-6.44v-1.05c0-3.56,2.89-6.44,6.44-6.44Z"/>
      </g>
      <g>
        <path class="cls-11" d="M212.07,809.74h186.72c14.69,0,26.62,11.93,26.62,26.62v4.34c0,14.69-11.93,26.62-26.62,26.62H212.07c-14.69,0-26.62-11.93-26.62-26.62v-4.34c0-14.69,11.93-26.62,26.62-26.62Z"/>
        <path class="cls-2" d="M228.67,828.44h190.3c3.55,0,6.44,2.89,6.44,6.44v1.05c0,3.55-2.89,6.44-6.44,6.44H228.67c-3.56,0-6.44-2.89-6.44-6.44v-1.05c0-3.56,2.89-6.44,6.44-6.44Z"/>
      </g>
      <g>
        <rect class="cls-1" x="185.45" y="752.17" width="239.95" height="57.57" rx="26.62" ry="26.62"/>
        <path class="cls-10" d="M228.67,770.86h190.3c3.55,0,6.44,2.89,6.44,6.44v1.05c0,3.55-2.89,6.44-6.44,6.44H228.67c-3.56,0-6.44-2.89-6.44-6.44v-1.05c0-3.55,2.89-6.44,6.44-6.44Z"/>
      </g>
      <g>
        <line class="cls-9" x1="212.67" y1="758.44" x2="262.99" y2="758.44"/>
        <line class="cls-9" x1="271.52" y1="758.44" x2="284.39" y2="758.44"/>
      </g>
      <g>
        <line class="cls-9" x1="208.83" y1="817.16" x2="259.15" y2="817.16"/>
        <line class="cls-9" x1="267.68" y1="817.16" x2="280.55" y2="817.16"/>
      </g>
      <g>
        <line class="cls-9" x1="206.23" y1="875.28" x2="256.55" y2="875.28"/>
        <line class="cls-9" x1="265.08" y1="875.28" x2="277.96" y2="875.28"/>
      </g>
    </g>
    <g>
      <path class="cls-14" d="M433.91,782.19H174.03c-8.28,0-14.57,7.44-13.2,15.6l22.96,137.04c1.08,6.45,6.66,11.17,13.2,11.17h213.96c6.54,0,12.12-4.72,13.2-11.17l22.96-137.04c1.37-8.16-4.93-15.6-13.2-15.6Zm-213.69,128.69c0,5.12-4.19,9.31-9.31,9.31s-9.31-4.19-9.31-9.31v-22.76c0-5.12,4.19-9.31,9.31-9.31s9.31,4.19,9.31,9.31v22.76Zm0-56.72c0,5.12-4.19,9.31-9.31,9.31s-9.31-4.19-9.31-9.31v-22.76c0-5.12,4.19-9.31,9.31-9.31s9.31,4.19,9.31,9.31v22.76Zm37.22,56.72c0,5.12-4.19,9.31-9.31,9.31s-9.31-4.19-9.31-9.31v-22.76c0-5.12,4.19-9.31,9.31-9.31s9.31,4.19,9.31,9.31v22.76Zm0-56.72c0,5.12-4.19,9.31-9.31,9.31s-9.31-4.19-9.31-9.31v-22.76c0-5.12,4.19-9.31,9.31-9.31s9.31,4.19,9.31,9.31v22.76Zm37.22,56.72c0,5.12-4.19,9.31-9.31,9.31s-9.31-4.19-9.31-9.31v-22.76c0-5.12,4.19-9.31,9.31-9.31s9.31,4.19,9.31,9.31v22.76Zm0-56.72c0,5.12-4.19,9.31-9.31,9.31s-9.31-4.19-9.31-9.31v-22.76c0-5.12,4.19-9.31,9.31-9.31s9.31,4.19,9.31,9.31v22.76Zm37.22,56.72c0,5.12-4.19,9.31-9.31,9.31s-9.31-4.19-9.31-9.31v-22.76c0-5.12,4.19-9.31,9.31-9.31s9.31,4.19,9.31,9.31v22.76Zm0-56.72c0,5.12-4.19,9.31-9.31,9.31s-9.31-4.19-9.31-9.31v-22.76c0-5.12,4.19-9.31,9.31-9.31s9.31,4.19,9.31,9.31v22.76Zm37.22,56.72c0,5.12-4.19,9.31-9.31,9.31s-9.31-4.19-9.31-9.31v-22.76c0-5.12,4.19-9.31,9.31-9.31s9.31,4.19,9.31,9.31v22.76Zm0-56.72c0,5.12-4.19,9.31-9.31,9.31s-9.31-4.19-9.31-9.31v-22.76c0-5.12,4.19-9.31,9.31-9.31s9.31,4.19,9.31,9.31v22.76Zm37.22,56.72c0,5.12-4.19,9.31-9.31,9.31h0c-5.12,0-9.31-4.19-9.31-9.31v-22.76c0-5.12,4.19-9.31,9.31-9.31h0c5.12,0,9.31,4.19,9.31,9.31v22.76Zm0-56.72c0,5.12-4.19,9.31-9.31,9.31h0c-5.12,0-9.31-4.19-9.31-9.31v-22.76c0-5.12,4.19-9.31,9.31-9.31h0c5.12,0,9.31,4.19,9.31,9.31v22.76Z"/>
      <path class="cls-16" d="M424.16,927.01c-1.08,6.45-6.66,11.18-13.2,11.18H197c-6.54,0-12.12-4.73-13.2-11.18l-22.64-135.11c-.53,1.85-.67,3.84-.32,5.88l22.96,137.04c1.08,6.45,6.66,11.17,13.2,11.17h213.96c6.54,0,12.12-4.72,13.2-11.17l22.96-137.04c.34-2.04,.21-4.04-.32-5.88l-22.64,135.11Z"/>
      <rect class="cls-14" x="141.22" y="768.03" width="325.51" height="38.71" rx="17.9" ry="17.9"/>
      <path class="cls-16" d="M447.37,798.77H160.58c-9.28,0-17.08-6.62-18.93-15.37-.27,1.29-.43,2.62-.43,3.99,0,10.64,8.71,19.35,19.35,19.35H447.37c10.64,0,19.35-8.71,19.35-19.35,0-1.37-.15-2.7-.43-3.99-1.85,8.75-9.65,15.37-18.93,15.37Z"/>
      <line class="cls-4" x1="160.27" y1="774.78" x2="236.86" y2="774.78"/>
      <line class="cls-4" x1="246.62" y1="774.78" x2="255.95" y2="774.78"/>
    </g>
  </g>
  <line class="cls-7" x1="114.59" y1="946" x2="941.39" y2="946"/>
  <path class="cls-1" d="M93.17,418.02c-2.5-1.53-5.01-2.29-7.51-2.88-1.34-.29-2.68-.48-4.02-.61-.13-1.34-.32-2.68-.61-4.02-.59-2.5-1.35-5.01-2.88-7.51-1.53,2.5-2.29,5.01-2.88,7.51-.29,1.34-.48,2.67-.61,4.01-1.34,.13-2.68,.32-4.02,.61-2.5,.58-5.01,1.35-7.51,2.89,2.5,1.54,5.01,2.31,7.51,2.89,1.34,.29,2.67,.48,4.01,.61,.13,1.34,.32,2.67,.61,4.01,.58,2.5,1.35,5.01,2.89,7.51,1.54-2.5,2.31-5.01,2.89-7.51,.29-1.34,.48-2.68,.61-4.02,1.34-.13,2.67-.32,4.01-.61,2.5-.59,5.01-1.35,7.51-2.88Z"/>
  <path class="cls-1" d="M490.49,288.31c-2.5-1.53-5.01-2.29-7.51-2.88-1.34-.29-2.68-.48-4.02-.61-.13-1.34-.32-2.68-.61-4.02-.59-2.5-1.35-5.01-2.88-7.51-1.53,2.5-2.29,5.01-2.88,7.51-.29,1.34-.48,2.67-.61,4.01-1.34,.13-2.68,.32-4.02,.61-2.5,.58-5.01,1.35-7.51,2.89,2.5,1.54,5.01,2.31,7.51,2.89,1.34,.29,2.67,.48,4.01,.61,.13,1.34,.32,2.67,.61,4.01,.58,2.5,1.35,5.01,2.89,7.51,1.54-2.5,2.31-5.01,2.89-7.51,.29-1.34,.48-2.68,.61-4.02,1.34-.13,2.67-.32,4.01-.61,2.5-.59,5.01-1.35,7.51-2.88Z"/>
  <path class="cls-1" d="M941.39,403c-2.5-1.53-5.01-2.29-7.51-2.88-1.34-.29-2.68-.48-4.02-.61-.13-1.34-.32-2.68-.61-4.02-.59-2.5-1.35-5.01-2.88-7.51-1.53,2.5-2.29,5.01-2.88,7.51-.29,1.34-.48,2.67-.61,4.01-1.34,.13-2.68,.32-4.02,.61-2.5,.58-5.01,1.35-7.51,2.89,2.5,1.54,5.01,2.31,7.51,2.89,1.34,.29,2.67,.48,4.01,.61,.13,1.34,.32,2.67,.61,4.01,.58,2.5,1.35,5.01,2.89,7.51,1.54-2.5,2.31-5.01,2.89-7.51,.29-1.34,.48-2.68,.61-4.02,1.34-.13,2.67-.32,4.01-.61,2.5-.59,5.01-1.35,7.51-2.88Z"/>
  <path class="cls-1" d="M116.32,572.43c-1.7-1.04-3.4-1.56-5.1-1.96-.91-.2-1.82-.33-2.73-.42-.09-.91-.22-1.82-.42-2.73-.4-1.7-.92-3.4-1.96-5.1-1.04,1.7-1.56,3.4-1.96,5.1-.2,.91-.33,1.82-.42,2.72-.91,.09-1.82,.22-2.73,.41-1.7,.4-3.4,.92-5.1,1.96,1.7,1.05,3.4,1.57,5.1,1.96,.91,.2,1.82,.33,2.72,.41,.09,.91,.22,1.82,.41,2.72,.4,1.7,.92,3.4,1.96,5.1,1.05-1.7,1.57-3.4,1.96-5.1,.2-.91,.33-1.82,.41-2.73,.91-.09,1.82-.22,2.72-.42,1.7-.4,3.4-.92,5.1-1.96Z"/>
  <path class="cls-1" d="M877.32,247.98c-1.7-1.04-3.4-1.56-5.1-1.96-.91-.2-1.82-.33-2.73-.42-.09-.91-.22-1.82-.42-2.73-.4-1.7-.92-3.4-1.96-5.1-1.04,1.7-1.56,3.4-1.96,5.1-.2,.91-.33,1.82-.42,2.72-.91,.09-1.82,.22-2.73,.41-1.7,.4-3.4,.92-5.1,1.96,1.7,1.05,3.4,1.57,5.1,1.96,.91,.2,1.82,.33,2.72,.41,.09,.91,.22,1.82,.41,2.72,.4,1.7,.92,3.4,1.96,5.1,1.05-1.7,1.57-3.4,1.96-5.1,.2-.91,.33-1.82,.41-2.73,.91-.09,1.82-.22,2.72-.42,1.7-.4,3.4-.92,5.1-1.96Z"/>
  <path class="cls-1" d="M921.55,595.76c-1.7-1.04-3.4-1.56-5.1-1.96-.91-.2-1.82-.33-2.73-.42-.09-.91-.22-1.82-.42-2.73-.4-1.7-.92-3.4-1.96-5.1-1.04,1.7-1.56,3.4-1.96,5.1-.2,.91-.33,1.82-.42,2.72-.91,.09-1.82,.22-2.73,.41-1.7,.4-3.4,.92-5.1,1.96,1.7,1.05,3.4,1.57,5.1,1.96,.91,.2,1.82,.33,2.72,.41,.09,.91,.22,1.82,.41,2.72,.4,1.7,.92,3.4,1.96,5.1,1.05-1.7,1.57-3.4,1.96-5.1,.2-.91,.33-1.82,.41-2.73,.91-.09,1.82-.22,2.72-.42,1.7-.4,3.4-.92,5.1-1.96Z"/>
</svg>