<?xml version="1.0" encoding="UTF-8"?>
<svg id="Layer_1" data-name="Layer 1" xmlns="http://www.w3.org/2000/svg" xmlns:xlink="http://www.w3.org/1999/xlink" viewBox="0 0 921 765">
  <defs>
    <style>
      .cls-1, .cls-2, .cls-3, .cls-4, .cls-5, .cls-6, .cls-7, .cls-8, .cls-9, .cls-10, .cls-11, .cls-12, .cls-13, .cls-14, .cls-15, .cls-16, .cls-17, .cls-18, .cls-19, .cls-20, .cls-21, .cls-22, .cls-23, .cls-24, .cls-25, .cls-26, .cls-27, .cls-28, .cls-29, .cls-30, .cls-31, .cls-32, .cls-33, .cls-34, .cls-35, .cls-36 {
        fill-rule: evenodd;
      }

      .cls-1, .cls-37 {
        fill: #fba446;
      }

      .cls-2 {
        fill: #257fc2;
      }

      .cls-38 {
        stroke: #e7eff8;
      }

      .cls-38, .cls-39, .cls-40 {
        stroke-miterlimit: 10;
      }

      .cls-38, .cls-39, .cls-40, .cls-41 {
        fill: none;
      }

      .cls-3, .cls-42 {
        fill: #ffc66e;
      }

      .cls-4, .cls-43 {
        fill: #5b64c6;
      }

      .cls-5 {
        fill: #fff;
      }

      .cls-6 {
        fill: #ed7267;
      }

      .cls-7, .cls-44 {
        fill: #7580cb;
      }

      .cls-8 {
        fill: #0eb096;
      }

      .cls-45, .cls-15 {
        fill: #2c4e6d;
      }

      .cls-46, .cls-10 {
        fill: #655bb3;
      }

      .cls-9 {
        fill: #7480c9;
      }

      .cls-11, .cls-47 {
        fill: #d7deff;
      }

      .cls-12 {
        fill: #7d76c2;
      }

      .cls-13 {
        fill: #00b097;
      }

      .cls-48, .cls-29 {
        fill: #c8ccf4;
      }

      .cls-49, .cls-34 {
        fill: #9cabef;
      }

      .cls-39 {
        stroke: #000;
        stroke-width: .57px;
      }

      .cls-14 {
        fill: #257fc1;
      }

      .cls-50, .cls-26 {
        fill: #becfff;
      }

      .cls-51 {
        fill: #919cd7;
      }

      .cls-52 {
        fill: #dde3fd;
      }

      .cls-16 {
        fill: #edb099;
      }

      .cls-53 {
        fill: #cbcef5;
      }

      .cls-54, .cls-23 {
        fill: #c0443d;
      }

      .cls-17, .cls-55 {
        fill: #fea746;
      }

      .cls-18, .cls-56 {
        fill: #e68d75;
      }

      .cls-19 {
        fill: #645bb6;
      }

      .cls-40 {
        stroke: #fff;
        stroke-width: 1.01px;
      }

      .cls-20 {
        fill: #8083ed;
      }

      .cls-21, .cls-57 {
        fill: #018180;
      }

      .cls-22 {
        fill: #f07267;
      }

      .cls-24 {
        fill: #756dbe;
      }

      .cls-58 {
        clip-path: url(#clippath);
      }

      .cls-59 {
        fill: #9baaee;
      }

      .cls-60 {
        fill: #ffe9c8;
      }

      .cls-25 {
        fill: #c4443d;
      }

      .cls-61 {
        fill: #9eadf1;
      }

      .cls-27 {
        fill: #b46a4f;
      }

      .cls-28 {
        fill: #006099;
      }

      .cls-62 {
        fill: #8184ee;
      }

      .cls-30 {
        fill: #008481;
      }

      .cls-31 {
        fill: #00b399;
      }

      .cls-32 {
        fill: #fdc36e;
      }

      .cls-33 {
        fill: #ffa845;
      }

      .cls-35 {
        fill: #e7edff;
      }

      .cls-36 {
        fill: #ffc46e;
      }
    </style>
    <clipPath id="clippath">
      <polygon class="cls-41" points="918.27 761.92 3.54 761.9 3.54 337.04 918.19 337.11 918.27 761.92"/>
    </clipPath>
  </defs>
  <g>
    <rect class="cls-48" x="82.19" y="68.04" width="254.08" height="102.39"/>
    <rect class="cls-48" x="264.87" y="212.6" width="135.61" height="56.12"/>
  </g>
  <g>
    <g>
      <rect class="cls-51" x="3.54" y="434.72" width="338.61" height="327.28"/>
      <polygon class="cls-24" points="3.54 434.72 342.16 434.72 342.16 454.88 3.54 434.72"/>
      <rect class="cls-51" x="3.54" y="417.2" width="354.75" height="17.53"/>
      <rect class="cls-40" x="33.91" y="496.43" width="264.1" height="60.98"/>
      <rect class="cls-40" x="32.07" y="577.74" width="264.1" height="60.98"/>
      <g>
        <rect class="cls-55" x="183.65" y="224.68" width="30.6" height="192.88"/>
        <rect class="cls-42" x="48.53" y="224.68" width="142.93" height="192.88"/>
        <path class="cls-22" d="M48.53,224.68h36.2c-6.71,19.37-24.59,29.54-36.2,30.62v-30.62Z"/>
        <rect class="cls-60" x="76.48" y="263.11" width="90.06" height="56.62"/>
      </g>
      <g>
        <path class="cls-10" d="M85.32,417.3v-39.18c1.32-.24,2.69-.38,4.09-.38H247.58c10.64,0,19.32,7.32,19.32,16.26v7.39c0,8.86-8.49,16.1-18.97,16.26H89.06c-1.28-.02-2.52-.14-3.74-.36"/>
        <path class="cls-9" d="M78.92,377.75h126.31c8.48,0,15.41,7.32,15.41,16.26v7.39c0,8.96-6.94,16.28-15.41,16.28H78.92c-8.49,0-15.43-7.32-15.43-16.28v-7.39c0-8.94,6.94-16.26,15.43-16.26"/>
        <path class="cls-46" d="M99.21,410.08c-4.44,0-8.72-.04-12.79-.13-7.51-.16-12.54-3.57-13.45-9.12-.84-5.13,2.16-10.43,6.83-12.06,12.6-4.38,124.87-3.57,132.03-.89l-.61,1.59c-6.66-2.49-119.15-3.16-130.84,.9-3.84,1.34-6.4,5.91-5.7,10.18,.77,4.74,5.07,7.54,11.78,7.69,18.15,.4,40.67-.21,62.44-.8,17.11-.46,34.83-.94,49.66-.89h.04c3.79,0,6.64-1.2,7.82-3.29,.78-1.39,.71-3.06-.19-4.47-1.34-2.11-4.21-3.26-7.69-3.06-32.3,1.8-69.06,1.82-101.48,1.79h-5.18v-1.7h5.18c32.4,0,69.13,.01,101.38-1.79,4.1-.22,7.56,1.21,9.25,3.85,1.24,1.94,1.33,4.26,.23,6.2-1.49,2.66-4.83,4.18-9.38,4.17-14.81-.05-31.72,.41-49.61,.89-16.93,.46-34.3,.92-49.74,.92"/>
      </g>
    </g>
    <g>
      <rect class="cls-59" x="885.84" y="88.89" width="32.44" height="638.35"/>
      <rect class="cls-53" x="635.77" y="88.89" width="250.08" height="638.35"/>
      <rect class="cls-59" x="677.75" y="336.16" width="166.09" height="124.36"/>
      <rect class="cls-52" x="708.31" y="336.16" width="135.54" height="124.36"/>
      <rect class="cls-61" x="677.75" y="178.2" width="166.09" height="124.36"/>
      <rect class="cls-52" x="708.31" y="178.2" width="135.54" height="124.36"/>
      <g>
        <path class="cls-30" d="M843.84,460.23v-31.37c-.81-.19-1.66-.3-2.52-.3h-108.45c-6.61,0-12.02,5.86-12.02,13.03v5.92c0,7.07,5.28,12.87,11.79,13h108.91c.79-.02,1.55-.11,2.3-.29Z"/>
        <path class="cls-31" d="M710.6,428.57h108.45c6.61,0,12.02,5.86,12.02,13.03v5.92c0,7.15-5.41,13.01-12.02,13.01h-108.45c-6.61,0-12.02-5.86-12.02-13.01v-5.92c0-7.17,5.41-13.03,12.02-13.03h0Z"/>
        <path class="cls-57" d="M728.62,454.48c-3.72,0-7.31-.03-10.72-.1-6.42-.13-10.66-2.93-11.33-7.5-.6-4.06,1.95-8.24,5.79-9.51,10.59-3.51,105.19-2.86,111.23-.71l-.46,1.33c-5.62-2-100.49-2.54-110.34,.72-3.22,1.06-5.34,4.56-4.85,7.96,.56,3.83,4.29,6.19,9.98,6.3,15.33,.32,34.35-.17,52.74-.64,15.05-.39,29.27-.78,41.77-.72h.04c3.29,0,5.73-1,6.69-2.74,.57-1.04,.52-2.23-.13-3.29-1.1-1.78-3.58-2.75-6.61-2.59-27.2,1.46-58.17,1.45-85.45,1.45h-4.46v-1.41h4.46c27.28-.01,58.21,0,85.38-1.45,3.56-.19,6.49,1.03,7.86,3.26,.91,1.48,.97,3.25,.16,4.72-1.22,2.21-4.04,3.48-7.94,3.47-12.44-.03-26.68,.33-41.73,.72-14.33,.37-29.03,.74-42.09,.74Z"/>
      </g>
      <g>
        <path class="cls-23" d="M843.84,398.36c-1.78-1.14-3.85-1.8-6.05-1.8h-108.45c-6.61,0-12.02,5.87-12.02,13.02v5.92c0,7.17,5.41,13.03,12.02,13.03h108.45c2.21,0,4.27-.66,6.05-1.8v-28.37Z"/>
        <path class="cls-6" d="M707.08,396.56h108.45c6.61,0,12.02,5.87,12.02,13.02v5.92c0,7.17-5.41,13.03-12.02,13.03h-108.45c-6.61,0-12.02-5.86-12.02-13.03v-5.92c0-7.15,5.41-13.02,12.02-13.02h0Z"/>
        <path class="cls-54" d="M725.16,422.47c-3.74,0-7.35-.03-10.78-.1-6.42-.13-10.66-2.93-11.33-7.5-.6-4.06,1.94-8.23,5.78-9.51,10.6-3.51,105.2-2.86,111.24-.71l-.46,1.33c-5.62-2-100.5-2.54-110.35,.72-3.21,1.06-5.34,4.56-4.84,7.96,.56,3.83,4.3,6.18,9.98,6.3,15.35,.32,34.37-.17,52.77-.64,15.04-.38,29.24-.75,41.74-.71h.04c3.29,0,5.73-1,6.69-2.74,.57-1.03,.52-2.23-.13-3.29-1.1-1.78-3.58-2.75-6.61-2.59-27.37,1.45-58.52,1.46-85.97,1.45h-3.94v-1.41h3.94c27.45,.02,58.56,0,85.9-1.44,3.54-.19,6.49,1.03,7.86,3.26,.91,1.48,.97,3.25,.16,4.72-1.22,2.21-4.09,3.46-7.94,3.47-12.46-.04-26.67,.33-41.7,.71-14.31,.36-29,.74-42.05,.74Z"/>
      </g>
      <g>
        <path class="cls-1" d="M843.84,302.26v-32.44c-.85-.2-1.73-.31-2.63-.31h-101.79c-6.84,0-12.43,6.06-12.43,13.47v6.12c0,7.33,5.47,13.33,12.21,13.47h102.25c.82-.02,1.63-.12,2.4-.3Z"/>
        <path class="cls-32" d="M715.24,269.51h101.79c6.83,0,12.42,6.06,12.42,13.47v6.12c0,7.42-5.59,13.48-12.42,13.48h-101.79c-6.84,0-12.43-6.06-12.43-13.48v-6.12c0-7.41,5.59-13.47,12.43-13.47h0Z"/>
        <path class="cls-37" d="M731.59,296.28c-3.58,0-7.03-.03-10.31-.1-6.06-.13-10.11-2.96-10.84-7.55-.67-4.25,1.74-8.63,5.5-9.98,10.15-3.63,100.64-2.96,106.4-.74l-.49,1.32c-5.36-2.06-96.02-2.62-105.44,.75-3.1,1.11-5.16,4.89-4.59,8.43,.62,3.93,4.08,6.25,9.49,6.37,14.63,.33,32.78-.17,50.32-.66,13.79-.38,28.07-.78,40.02-.74h.03c3.06,0,5.35-.99,6.3-2.73,.63-1.15,.57-2.54-.15-3.7-1.08-1.75-3.4-2.7-6.2-2.53-26.03,1.49-55.65,1.51-81.79,1.48h-4.17v-1.41h4.17c26.11,0,55.71,0,81.71-1.48,3.3-.18,6.1,1,7.45,3.19,1,1.61,1.07,3.53,.19,5.13-1.21,2.2-3.9,3.46-7.56,3.45-11.93-.04-25.56,.34-39.98,.74-13.64,.38-27.64,.76-40.09,.76Z"/>
      </g>
      <rect class="cls-38" x="679.11" y="511.07" width="163.59" height="58.75"/>
      <rect class="cls-38" x="679.11" y="586.95" width="163.59" height="58.75"/>
    </g>
  </g>
  <g>
    <rect class="cls-62" x="3.53" y="702.9" width="914.76" height="59"/>
    <polygon class="cls-19" points="918.29 736.73 3.53 726.27 3.53 723.02 918.29 723.02 918.29 736.73"/>
    <g>
      <g>
        <path class="cls-20" d="M525.78,235.48c123.15,24.74,184.14,93.06,206.55,221.91l-.19,.24H215.25c27.27-104.74,69.75-191.97,204.55-220.74-.69,3.71-1.39,7.25-2.13,10.55,7.03,61.06,103.62,50.51,110.64,.02-.96-3.75-1.79-7.76-2.53-11.97h0Z"/>
        <path class="cls-19" d="M719.74,404.03c.08,.29,.18,.59,.27,.9l2.98,52.63s-153.27-21.77-155.65-22.76c-1.98-.83-92.86-7.76-127.88-10.71-4.53,13.17-9.3,26.83-11.97,33.55H228.93l4.32-49.71,67.18-51.03c11.4-8.66,26.38-11,39.88-6.24l16.19,5.71,186.31-28.78c7.29-.93,14.68-.7,21.9,.69l103.84,21.58c7.65,1.48,14.53,5.62,19.42,11.7l31.78,42.48Z"/>
        <path class="cls-16" d="M424.34,202.83c-1.26,15.43-3.84,31.88-6.67,44.61,7.03,61.06,103.62,50.51,110.64,.02-3.44-13.46-5.31-30.65-6.58-46.77-12.16,21.13-30.23,27.5-52.48,26.6-21.59-.82-35.71-10.15-44.91-24.46h0Z"/>
        <path class="cls-18" d="M424.34,202.83l-.1,1.18c26.56,66.67,78.8,60.18,97.02-2.51-12.16,20.49-30.06,26.68-52.02,25.78-21.59-.82-35.71-10.15-44.91-24.46h0Z"/>
        <path class="cls-16" d="M558.03,137.43c-6.93,20.89-9.47,32.72-24.44,29.99-10,48.16-33,61.22-64.25,59.96-36.57-1.39-51.71-27.18-57.86-60.28-15.22,2.75-17.64-9.12-24.38-30.22-3.49-10.95-1.86-18.5,1.82-21.48,1.81-1.07,3.54-1.42,5.14-1.3,3.3,.58,6.96,3.51,10.04,9.16l3.65,9.14h.03l7.28-.85-1.22-5.68-1.82-9.3c17.83,3.47,67.33-.18,73.86-41.23,11.8,33.21,44.27,27.02,51.36,57.78,.99-5.35,11.2-25.8,20.28-16.05,1.55,2.18,2.32,4.67,2.53,7.31,.26,3.5-.32,7.88-2.03,13.04h0Z"/>
        <path class="cls-56" d="M551.92,132.68s-.11,.02-.27,.06c-.08,.03-.19,.07-.3,.11-.11,.05-.24,.13-.38,.19-.27,.16-.57,.38-.87,.67-.16,.13-.3,.31-.46,.48-.08,.08-.16,.17-.24,.26-.07,.1-.15,.2-.22,.31-.32,.39-.6,.88-.92,1.37-.15,.25-.29,.53-.44,.8-.14,.28-.32,.53-.45,.84-.27,.61-.6,1.18-.86,1.84-.27,.65-.6,1.27-.84,1.95-.27,.67-.58,1.31-.84,1.98-.25,.67-.54,1.32-.82,1.95-.27,.64-.53,1.25-.78,1.84-.26,.59-.53,1.13-.77,1.64-.46,1.03-.91,1.88-1.26,2.47-.16,.3-.32,.53-.41,.69-.1,.16-.16,.24-.16,.24,0,0-.01-.1-.03-.28-.01-.18-.05-.46-.06-.8-.04-.68-.05-1.66,.01-2.82,.05-.58,.13-1.2,.22-1.85,.11-.65,.2-1.35,.37-2.05,.18-.7,.37-1.43,.59-2.16,.2-.73,.53-1.45,.81-2.18,.28-.72,.67-1.43,1.04-2.11,.18-.35,.37-.68,.6-1,.22-.32,.43-.64,.65-.94,.21-.31,.47-.59,.71-.87,.26-.27,.47-.55,.74-.79,.27-.24,.53-.47,.79-.68,.25-.22,.55-.39,.82-.56,.13-.08,.27-.16,.39-.24,.14-.06,.28-.13,.41-.19,.27-.11,.51-.24,.78-.29,.5-.15,.97-.18,1.33-.18,.37,0,.65,.1,.83,.15,.19,.07,.26,.13,.26,.13Z"/>
        <path class="cls-45" d="M453.36,169.44s.1,.16,.28,.46c.19,.3,.43,.76,.79,1.3,.18,.26,.38,.55,.6,.87,.22,.31,.49,.63,.75,.98,.26,.35,.58,.69,.92,1.04,.17,.17,.32,.37,.51,.54,.19,.17,.38,.35,.57,.53,.76,.73,1.68,1.39,2.67,2.05,1.02,.6,2.11,1.2,3.32,1.64,1.2,.43,2.47,.82,3.8,1.03,1.32,.2,2.68,.35,4.05,.3,1.36-.03,2.73-.18,4.04-.45,1.31-.3,2.59-.66,3.77-1.16,1.18-.51,2.31-1.06,3.28-1.73,.52-.3,.95-.68,1.41-1.01,.44-.35,.84-.72,1.24-1.07,.75-.73,1.41-1.46,1.95-2.15,.26-.35,.49-.69,.73-1,.2-.33,.39-.63,.56-.9,.36-.54,.56-1.01,.74-1.31,.17-.31,.26-.48,.26-.48,0,0-.03,.19-.08,.53-.03,.18-.06,.39-.1,.65-.02,.13-.04,.27-.07,.41-.04,.14-.08,.29-.13,.45-.09,.32-.19,.68-.3,1.07-.14,.38-.31,.78-.49,1.22-.18,.44-.44,.87-.68,1.35-.25,.48-.59,.92-.91,1.42-.35,.47-.74,.95-1.16,1.43-.45,.45-.89,.95-1.42,1.38-1.02,.92-2.23,1.71-3.55,2.42-.34,.17-.68,.33-1.02,.5-.35,.16-.71,.29-1.06,.43-.36,.15-.72,.27-1.1,.39-.37,.11-.75,.24-1.13,.32-1.52,.41-3.12,.58-4.72,.64-1.6,.04-3.2-.14-4.75-.46-.38-.09-.77-.18-1.15-.27-.37-.12-.74-.24-1.11-.36-.37-.11-.72-.27-1.08-.41-.35-.15-.71-.28-1.04-.46-1.36-.64-2.56-1.48-3.62-2.33-1.03-.9-1.93-1.83-2.62-2.79-.35-.48-.68-.93-.93-1.4-.27-.46-.52-.89-.7-1.33-.19-.43-.4-.81-.52-1.21-.13-.39-.25-.74-.35-1.06-.12-.31-.17-.6-.22-.85-.05-.25-.1-.46-.13-.63-.07-.35-.1-.53-.1-.53Z"/>
        <path class="cls-15" d="M450.14,146.3c5.47,0,9.94-6.15,9.94-13.67s-4.47-13.67-9.94-13.67-9.92,6.13-9.92,13.67,4.47,13.67,9.92,13.67h0Z"/>
        <path class="cls-45" d="M470.4,122.28s.04,.17,.11,.49c.06,.32,.17,.79,.27,1.4,.06,.61,.18,1.37,.19,2.24,0,.43,.01,.9,.02,1.38,0,.49-.06,1-.09,1.53-.09,1.07-.26,2.22-.52,3.43-.26,1.2-.61,2.45-1.04,3.72-.44,1.26-.94,2.54-1.51,3.8-.55,1.27-1.17,2.52-1.77,3.75-.61,1.22-1.2,2.43-1.69,3.6-.48,1.17-.86,2.3-.96,3.31-.11,1.01,.1,1.87,.59,2.68,.49,.81,1.28,1.48,2.01,2.09,.4,.28,.79,.55,1.16,.81,.39,.24,.77,.47,1.12,.68,.73,.4,1.37,.75,1.9,1.04,.54,.26,.97,.49,1.26,.64,.29,.16,.45,.24,.45,.24,0,0-.17-.02-.5-.05-.32-.04-.81-.09-1.42-.19-.6-.11-1.35-.25-2.18-.48-.42-.13-.86-.26-1.33-.4-.47-.17-.95-.39-1.46-.6-.98-.52-2.09-1.13-3.04-2.23-.23-.28-.43-.59-.65-.91-.19-.33-.34-.69-.51-1.06-.12-.37-.22-.76-.3-1.16-.04-.39-.09-.79-.1-1.19,0-1.58,.4-3.05,.9-4.41,.49-1.37,1.11-2.64,1.71-3.9,.62-1.23,1.23-2.45,1.84-3.66,.6-1.19,1.16-2.36,1.69-3.5,.25-.57,.5-1.14,.74-1.69,.22-.56,.46-1.1,.65-1.64,.41-1.07,.75-2.1,1.04-3.07,.14-.49,.27-.95,.39-1.4,.11-.45,.21-.88,.31-1.28,.18-.81,.3-1.51,.42-2.11,.07-.6,.16-1.08,.21-1.41,.06-.32,.09-.5,.09-.5Z"/>
        <path class="cls-56" d="M392.39,130.65s.08-.06,.26-.13c.18-.06,.46-.14,.84-.14,.37,0,.83,.03,1.33,.19,.27,.06,.5,.18,.77,.3,.13,.06,.27,.13,.41,.19,.13,.08,.26,.16,.39,.25,.26,.18,.56,.35,.81,.57,.26,.22,.51,.45,.78,.69,.27,.24,.48,.52,.73,.8,.24,.28,.5,.57,.7,.88,.22,.31,.43,.63,.64,.95,.23,.32,.41,.66,.59,1.01,.36,.69,.74,1.4,1.01,2.12,.27,.73,.59,1.46,.78,2.19,.21,.73,.4,1.46,.56,2.16,.17,.7,.25,1.4,.35,2.05,.09,.66,.16,1.28,.2,1.86,.05,1.16,.03,2.13-.02,2.82-.01,.34-.05,.61-.07,.8-.02,.18-.04,.28-.04,.28,0,0-.05-.08-.15-.24-.09-.16-.25-.39-.4-.69-.34-.6-.78-1.45-1.23-2.49-.24-.51-.5-1.06-.75-1.65-.24-.59-.5-1.21-.76-1.85-.27-.63-.55-1.28-.79-1.96-.25-.67-.55-1.32-.81-1.99-.24-.69-.56-1.31-.82-1.96-.25-.66-.58-1.24-.84-1.85-.12-.31-.3-.57-.44-.85-.15-.27-.28-.56-.43-.81-.31-.49-.59-.99-.9-1.38-.07-.11-.15-.21-.22-.31-.08-.09-.16-.18-.23-.26-.15-.17-.3-.36-.45-.48-.3-.29-.59-.52-.86-.68-.14-.07-.26-.14-.37-.2-.11-.05-.22-.09-.3-.12-.17-.05-.27-.07-.27-.07Z"/>
        <path class="cls-15" d="M493.96,146.06c5.47,0,9.94-6.15,9.94-13.68s-4.47-13.67-9.94-13.67-9.94,6.15-9.94,13.67,4.47,13.68,9.94,13.68h0Z"/>
        <polygon class="cls-39" points="354.16 453.15 340.67 359.96 338.26 449.33 354.16 453.15"/>
        <polygon class="cls-39" points="595.44 455.06 611.81 352.78 610.37 450.75 595.44 455.06"/>
        <path class="cls-27" d="M386.72,117.58c-45.87-93.66,64.61-152.23,136.89-88.19,26.76-10.76,84.32,20.98,36.51,95.17-1.9-17.77-17.77-8.72-22.84,8.55-5.76-25.51-41.15-27.21-51.36-57.78-6.56,41.18-56.37,44.72-74.04,41.2l3.22,15.01-7.31,.85-4.16-10.42c-1.92-3.5-9.75-12.85-16.9-4.39h0Z"/>
        <path class="cls-45" d="M441.18,111.31s-.03-.11-.05-.3c-.01-.19-.06-.49-.04-.83,.01-.35,.03-.78,.12-1.25,.08-.47,.23-.99,.44-1.54,.22-.54,.5-1.12,.89-1.69,.39-.57,.87-1.15,1.49-1.67,.6-.53,1.33-1.02,2.18-1.37,.83-.39,1.79-.6,2.76-.69,.98-.07,1.95,.05,2.85,.29,.89,.25,1.69,.63,2.37,1.08,.68,.44,1.23,.96,1.7,1.47,.44,.53,.82,1.05,1.09,1.57,.13,.26,.27,.5,.37,.75,.09,.25,.19,.48,.26,.71,.07,.23,.14,.43,.19,.64,.04,.21,.07,.39,.1,.57,.07,.33,.07,.63,.09,.81,.01,.19,.01,.3,.01,.3l-.3,.26s-.22-.23-.61-.62c-.19-.2-.43-.44-.72-.69-.28-.26-.6-.55-.97-.84-.35-.31-.77-.6-1.21-.91-.23-.14-.46-.28-.7-.42-.24-.14-.5-.25-.76-.38-.26-.13-.54-.21-.82-.31-.28-.09-.57-.16-.86-.22-.59-.09-1.19-.16-1.79-.09-1.2,.07-2.38,.5-3.36,1.11-.99,.6-1.8,1.35-2.44,2.03-.63,.69-1.14,1.3-1.46,1.75-.32,.45-.48,.71-.48,.71l-.35-.19Z"/>
        <path class="cls-45" d="M487.29,107.78s0-.11,.02-.3c.03-.18,.05-.47,.14-.79,.09-.33,.19-.73,.38-1.15,.18-.43,.42-.88,.73-1.35,.63-.93,1.56-1.93,2.94-2.66,.33-.2,.71-.35,1.1-.5,.39-.15,.81-.27,1.25-.35,.87-.2,1.85-.18,2.8-.05,.95,.17,1.89,.49,2.69,.97,.8,.46,1.47,1.04,1.99,1.65,.24,.31,.51,.6,.69,.92,.18,.32,.37,.62,.51,.93,.26,.62,.47,1.21,.57,1.77,.05,.28,.11,.54,.13,.8,.01,.26,.04,.5,.03,.73,0,.23,0,.44-.01,.64-.03,.2-.05,.39-.07,.55-.03,.33-.12,.6-.15,.78-.04,.18-.08,.28-.08,.28l-.36,.16s-.14-.27-.39-.74c-.12-.24-.27-.52-.47-.83-.19-.32-.41-.67-.67-1.03-.24-.38-.56-.75-.88-1.15-.18-.18-.36-.37-.54-.57-.19-.19-.4-.36-.6-.54-.21-.18-.44-.33-.67-.5-.24-.14-.48-.29-.74-.41-.51-.24-1.06-.42-1.63-.51-.56-.08-1.14-.11-1.71-.04-.56,.07-1.12,.19-1.64,.38-1.04,.35-1.97,.86-2.72,1.34-.75,.5-1.35,.95-1.75,1.29-.4,.34-.61,.55-.61,.55l-.29-.27Z"/>
        <path class="cls-14" d="M345.23,364.47l197.73-20.87c4.51-.48,9.06-.4,13.55,.22l96.59,13.4c13.81,1.92,26.43,8.87,35.44,19.52l24.08,28.49,2.93,49.11s-148.69-20.09-150.99-21c-2.32-.93-130.94-10.1-136.96-11.03-6.02-.91-79.13-13.76-80.06-17.45-.91-3.67-2.77-41.33-2.3-40.4h0Z"/>
        <path class="cls-8" d="M451.71,393.13l-108.53-34.23c-15.18-4.79-31.73-2.08-44.59,7.3l-58.09,42.34-6.66,72.65,101.62,7.92s88.3-25.1,91.84-31.26c3.55-6.16,23.96-65.17,24.41-64.73h0Z"/>
        <path class="cls-21" d="M236.45,452.77l-.45,4.87h191.42c.48-.9,1.22-2.59,2.14-4.87H236.45Z"/>
        <path class="cls-3" d="M256.24,458.28l44.9-51.37c9-10.3,22.04-16.18,35.72-16.1l120.98,.69c7.3,.04,14.59-.77,21.7-2.43l68.17-15.88c14.95-3.48,30.66-1.51,44.29,5.55l86.78,44.98c7.32,3.79,14.19,8.4,20.49,13.73l20.7,17.53-.29,3.3H256.24Z"/>
        <polygon class="cls-17" points="258.19 457.64 262.45 452.77 720.07 452.77 721.93 454.34 721.64 457.64 258.19 457.64"/>
        <path class="cls-17" d="M370.9,407.43l96.29,7.94,96.29-39.63-77.42,53.77c-7.17,4.98-16.2,6.47-24.59,4.05l-90.57-26.12Z"/>
        <path class="cls-13" d="M671.85,492.82c-8.1-1.34-32.71,2.85-44.51,2.85-26.89,0-45.2-1.87-72.95,.88-11.73,1.17-21.85-1.31-35.9,1.34-13.08,2.5-47.5-2.21-63.06,2.45-7.46,2.22-53.68-4.67-66.26-4.67-5.73,0-32.46-3.94-36.36-5.55-5.71-2.37-29.34-.42-35.77,1.7-9.54,3.14-67.61,4.39-69.69,7.31-1.15,1.62-.74,43.04,1.41,47.47,17.03,35.07,60.32,38.89,93.55,50.54,18.45,6.47,30.14,17.99,51.49,18.76,5.27,.19,10.4,2.51,21.06,2.51,30.94,0,64.53-5.51,94.74-12.05,23.11-5.01,42.53-2.61,66.01-8.07,14.52-3.36,66.1-10.44,74.99-16.95,18.01-13.2,23.58-28.94,50.13-44.43,7.43-4.34-1.49-36.27-4.07-38.6-3.66-3.28-24.6-5.46-24.79-5.49h0Z"/>
        <path class="cls-11" d="M705.57,515.18c-27.61-5.49-59.94-3.01-87.85,.82-18.34,2.5-40.48,3.89-59.27,3.25-10.56-.37-55.27,14.81-63.33,23.64-4.21,4.61-62.34,38.94-69.7,42-10.74,4.43-33.45,15.4-38.27,26.01-6.45,14.18-1.23,33.39,14.15,41.73,22.78,12.36,66.18,15.61,93.89,22.23,18.2,4.35,37.47,1.49,56.77,4.74,18.98,3.2,33.66,.95,52.29-.88,20.63-2.02,26.39,1.38,47.3-9.09,12.74-6.37,16-6.23,26.41-17.88,12.68-14.2,18.41-38.51,17.88-57.43-.5-17.24,16.12-48.82,9.48-65.91-1.39-3.59,.32-6.47-3.1-12.4,.82-2.18,1.22,.78,3.38-.82h0Z"/>
        <path class="cls-12" d="M243.87,529.8c9.83,10.15,53.63,17.88,67.54,17.88,13.16,0,37.63-1.89,49.73,1.42,2.42,.66,15.14,1.51,18.76,3.46,10.87,5.87,15.03,5.51,28.46,14.63,30.33,20.65,68.02,14.63,103.15,14.63,94.43,0,96.5,32.78,161.49,50.4,7.75,2.11,18.42,27.51,11.44,36.8-6.55,8.69-14.68,14.85-23.77,19.3H278.18l-44.75-152.5c.69-.24,1.46-.37,2.32-.32,2.91,.11,6.27-13.73,8.11-5.7h0Z"/>
        <path class="cls-22" d="M732.33,483.39l-22.09,185.09c-2.26,18.87-11.8,34.91-27.4,34.91H255.29c-20.07,0-25.14-15.99-27.4-34.91l-22.09-185.09H732.33Zm-42.49,20.36l-3.9,31.91h-39.26v-31.91h43.17Zm-5.86,47.87l-4.31,35.24h-33v-35.24h37.31Zm-6.26,51.2l-4.61,37.56h-26.44v-37.56h31.05Zm-6.67,53.52c-2.5,13.48-9.25,24.28-19.19,24.28h-5.19v-24.28h24.38Zm-41.09,24.28h-37.58v-24.28h37.58v24.28Zm-54.29,0h-39.34v-24.28h39.34v24.28Zm-56.05,0h-36.56v-24.28h36.56v24.28Zm-53.27,0h-37.58v-24.28h37.58v24.28Zm-54.29,0h-36.2v-24.28h36.2v24.28Zm-52.91,0h-39.68v-24.28h39.68v24.28Zm-56.39,0h-8.99c-9.92,0-16.69-10.79-19.19-24.28h28.19v24.28Zm-30.25-40.24l-4.59-37.56h34.84v37.56h-30.25Zm-6.55-53.52l-4.32-35.24h41.12v35.24h-36.8Zm-6.27-51.2l-3.91-31.91h46.98v31.91h-43.07Zm59.78-31.91h39.68v31.91h-39.68v-31.91Zm56.39,0h36.2v31.91h-36.2v-31.91Zm52.91,0h37.58v31.91h-37.58v-31.91Zm54.29,0h36.56v31.91h-36.56v-31.91Zm53.27,0h39.34v31.91h-39.34v-31.91Zm56.05,0h37.58v31.91h-37.58v-31.91Zm-272.91,47.87v35.24h39.68v-35.24h-39.68Zm56.39,0v35.24h36.2v-35.24h-36.2Zm52.91,0v35.24h37.58v-35.24h-37.58Zm54.29,0v35.24h36.56v-35.24h-36.56Zm53.27,0v35.24h39.34v-35.24h-39.34Zm56.05,0v35.24h37.58v-35.24h-37.58Zm-272.91,51.2v37.56h39.68v-37.56h-39.68Zm56.39,0v37.56h36.2v-37.56h-36.2Zm52.91,0v37.56h37.58v-37.56h-37.58Zm54.29,0v37.56h36.56v-37.56h-36.56Zm53.27,0v37.56h39.34v-37.56h-39.34Zm56.05,0v37.56h37.58v-37.56h-37.58Z"/>
        <polygon class="cls-25" points="732.33 483.39 731.9 487.04 206.24 487.04 205.8 483.39 732.33 483.39"/>
        <path class="cls-25" d="M222.8,625.76l-.69-5.73c.14-.05,.29-.1,.43-.16l32.36-17.83c1.36-.74,2.48-1.55,3.43-2.43,.26,3.55-1.76,7.6-6.88,10.36l-28.65,15.8Z"/>
        <path class="cls-25" d="M716.53,615.72l-.9,7.6c-2.06,.03-4.27-.51-6.55-1.79l-29.64-22.07c-4.79-3.47-6.19-7.86-5.36-11.38,.91,1.42,2.21,2.8,3.94,4.07l29.64,22.07c3.17,1.78,6.21,2.13,8.87,1.5h0Z"/>
        <path class="cls-16" d="M719.11,549.09c11.04-17.88,22.09-35.74,34.73-50.53,4.56-6.66-11.09-9.41-23.45,.32-1.5,15.38-4.72,30.59-9.59,45.28l-.46,1.41c-.4,1.17-.82,2.34-1.23,3.52h0Z"/>
        <path class="cls-18" d="M719.11,549.09c3.17-5.14,6.34-10.28,9.56-15.33l4.38-36.76c-.9,.58-1.79,1.2-2.66,1.89-1.5,15.38-4.72,30.59-9.59,45.28l-.46,1.41c-.4,1.17-.82,2.34-1.23,3.52h0Z"/>
        <path class="cls-16" d="M737.97,545.94l-36.75-3.06c-14.79-1.31-14.6-16.5-1.76-18.23l35.2-4.13c18.39-1.76,20.52,24.63,3.31,25.42h0Z"/>
        <path class="cls-16" d="M219.62,554.82c-11.04-17.88-22.09-35.74-34.73-50.53-4.56-6.66,11.09-9.41,23.45,.32,1.5,15.38,4.72,30.6,9.59,45.28l.46,1.41c.4,1.17,.8,2.35,1.23,3.52h0Z"/>
        <path class="cls-18" d="M219.62,554.82c-3.14-5.09-6.29-10.16-9.46-15.17l-4.4-36.86c.86,.54,1.73,1.15,2.58,1.82,1.5,15.38,4.72,30.6,9.59,45.28l.46,1.41c.4,1.17,.8,2.35,1.23,3.52h0Z"/>
        <path class="cls-16" d="M707.67,614.22l-29.64-22.07c-11.56-8.42-3.42-22.06,8.53-16.17l31.64,15.56c16.33,8.13,4.27,31-10.53,22.68h0Z"/>
        <path class="cls-18" d="M680.41,574.56c1.86-.08,3.94,.34,6.15,1.42l31.64,15.56c2.99,1.49,5.03,3.47,6.26,5.65-1.47,.03-3.06-.21-4.72-.77l-33.16-16.34c-3.04-1.51-5.04-3.46-6.16-5.52h0Z"/>
        <path class="cls-16" d="M721.21,592.98l-33.15-16.34c-12.55-6.16-7.6-20.25,5.27-16.92l34.06,8.99c17.51,5.03,9.87,29.74-6.18,24.26h0Z"/>
        <path class="cls-18" d="M688.54,559.27c1.42-.13,3.02,0,4.79,.45l34.06,8.99c3.07,.88,5.36,2.37,6.98,4.19-1.28,.22-2.67,.26-4.19,.05l-34.3-9.25c-3.46-.95-5.86-2.56-7.33-4.43h0Z"/>
        <path class="cls-16" d="M731.32,569.5l-34.3-9.25c-13.78-3.79-10.93-18.15,1.54-17.57l34.06,2.16c17.75,1.51,15.12,26.89-1.3,24.66h0Z"/>
        <path class="cls-18" d="M693.2,543.49c1.5-.61,3.3-.91,5.36-.82l34.06,2.16c4.1,.35,7.11,1.97,9.11,4.23-1.07,.32-2.24,.53-3.54,.59l-36.75-3.07c-3.65-.32-6.39-1.49-8.24-3.09h0Z"/>
        <path class="cls-16" d="M222.55,619.87l32.36-17.83c12.6-6.79,6.4-21.4-6.26-17.17l-33.45,11.11c-17.29,5.84-8.45,30.12,7.35,23.9h0Z"/>
        <path class="cls-18" d="M254.94,584.29c-1.82-.35-3.94-.21-6.29,.58l-33.45,11.11c-3.17,1.07-5.44,2.75-6.98,4.75,1.46,.22,3.06,.21,4.8-.13l35.07-11.7c3.2-1.06,5.46-2.72,6.85-4.61h0Z"/>
        <path class="cls-16" d="M212.01,596.98l35.07-11.68c13.27-4.4,10.28-19.01-2.91-17.46l-34.97,4.27c-18.02,2.59-13.83,28.12,2.82,24.87h0Z"/>
        <path class="cls-18" d="M248.97,568.02c-1.41-.32-3.01-.42-4.82-.19l-34.96,4.27c-3.15,.46-5.63,1.62-7.49,3.2,1.25,.4,2.62,.62,4.16,.62l35.23-4.5c3.55-.48,6.16-1.74,7.87-3.41h0Z"/>
        <path class="cls-16" d="M205.76,572.52l35.28-4.24c14.16-1.79,13.41-16.41,.99-17.62l-34.04-2.72c-17.77-1.04-18.81,24.44-2.22,24.58h0Z"/>
        <path class="cls-18" d="M247.19,552.24c-1.39-.82-3.12-1.39-5.17-1.58l-34.04-2.72c-4.1-.24-7.3,.93-9.6,2.88,1.01,.46,2.14,.83,3.41,1.09l36.83,2.21c3.65,.21,6.51-.56,8.58-1.87h0Z"/>
        <path class="cls-16" d="M202.54,548.26l36.83,2.22c14.81,.82,16.79-14.23,4.34-17.8l-34.25-9.11c-17.96-4.37-23.82,21.46-6.91,24.68h0Z"/>
        <path class="cls-22" d="M201.37,457.64H735.72c7.07,0,12.87,5.79,12.87,12.89h0c0,7.07-5.79,12.87-12.87,12.87H201.37c-7.07,0-12.87-5.79-12.87-12.87h0c0-7.09,5.79-12.89,12.87-12.89h0Z"/>
        <path class="cls-19" d="M471.09,304.04c36.02,0,65.21-26.97,65.21-60.25,0-2.07-.11-4.11-.33-6.13-3.35-.76-6.74-1.49-10.18-2.19,.74,4.21,1.57,8.23,2.53,11.97-7.03,50.5-103.62,61.05-110.64-.02,.74-3.3,1.44-6.83,2.13-10.55-4.71,1.01-9.3,2.09-13.79,3.24-.08,1.21-.13,2.43-.13,3.67,0,33.27,29.2,60.25,65.21,60.25Z"/>
      </g>
      <g>
        <g>
          <path class="cls-62" d="M784.96,483.06h18.16c4.63,0,8.4,3.78,8.4,8.39v29.22c0,4.63-3.78,8.4-8.4,8.4h-18.16c-4.61,0-8.39-3.78-8.39-8.4v-29.22c0-4.61,3.78-8.39,8.39-8.39h0Z"/>
          <path class="cls-5" d="M743.48,505.25h67.67c10.83,0,19.68,7.36,19.68,16.35v172.21c0,5.33-5.26,9.71-11.69,9.71h-118.73c-6.43,0-11.69-4.37-11.69-9.71v-128.34c0-33.12,24.64-60.22,54.75-60.22h0Zm8.07,19.68c7.28,7.53,3.64,24.43-8.11,37.75-11.75,13.34-27.17,18.04-34.42,10.52-7.27-7.53-3.64-24.43,8.11-37.77,11.75-13.33,27.17-18.03,34.42-10.5h0Z"/>
          <path class="cls-47" d="M725.14,602.69h67.73c8.19,0,14.89,6.7,14.89,14.88v36.89c0,8.18-6.7,14.88-14.89,14.88h-67.73c-8.18,0-14.88-6.7-14.88-14.88v-36.89c0-8.18,6.7-14.88,14.88-14.88h0Z"/>
        </g>
        <rect class="cls-62" x="725.45" y="624.39" width="69.44" height="5.62"/>
        <rect class="cls-62" x="724.94" y="642.26" width="69.44" height="5.62"/>
      </g>
      <g>
        <g>
          <path class="cls-28" d="M207.05,601.39h160.6c10,0,18.18,8.69,18.18,19.3v12.19c0,10.62-8.18,19.3-18.18,19.3H207.05c-10,0-18.18-8.69-18.18-19.3v-12.19c0-10.62,8.18-19.3,18.18-19.3Z"/>
          <path class="cls-2" d="M147.74,601.39h176.07c10,0,18.18,8.69,18.18,19.3v12.19c0,10.62-8.18,19.3-18.18,19.3H147.74c-10,0-18.18-8.69-18.18-19.3v-12.19c0-10.62,8.18-19.3,18.18-19.3Z"/>
          <path class="cls-28" d="M150.17,615.67c-.6,0-1.09-.52-1.09-1.16s.49-1.16,1.09-1.16l160.32,.66c6.28-.3,10.66,3.31,12.75,8.08,.9,2.06,1.36,4.33,1.36,6.6,0,2.28-.48,4.55-1.46,6.59-2.21,4.58-6.93,7.96-14.52,7.5l-150.02-.87c-4.52,0-7.55-2.01-8.96-4.65-.6-1.13-.91-2.38-.91-3.64,0-1.26,.31-2.53,.92-3.7,1.52-2.9,4.94-5.24,10.36-5.42l139.82,1.31c.6,0,1.09,.53,1.09,1.17,0,.64-.5,1.16-1.1,1.15l-139.75-1.31c-4.53,.15-7.32,1.98-8.5,4.23-.43,.82-.65,1.7-.65,2.57,0,.86,.21,1.72,.63,2.49,1.05,1.97,3.43,3.47,7.06,3.47,50.03,0,100.1,.73,150.13,.87,6.57,.39,10.61-2.41,12.45-6.24,.82-1.7,1.22-3.61,1.22-5.53,0-1.93-.39-3.87-1.16-5.63-1.74-3.98-5.41-6.99-10.67-6.74l-160.41-.66Z"/>
        </g>
        <g>
          <path class="cls-33" d="M220.88,652.2h160.6c10,0,18.18,8.69,18.18,19.3v12.19c0,10.62-8.18,19.3-18.18,19.3H220.88c-10,0-18.18-8.69-18.18-19.3v-12.19c0-10.62,8.18-19.3,18.18-19.3Z"/>
          <path class="cls-36" d="M161.56,652.2h176.07c10,0,18.18,8.69,18.18,19.3v12.19c0,10.62-8.18,19.3-18.18,19.3H161.56c-10,0-18.18-8.69-18.18-19.3v-12.19c0-10.62,8.18-19.3,18.18-19.3Z"/>
          <path class="cls-33" d="M164.2,665.2c-.6,0-1.09-.52-1.09-1.16s.49-1.16,1.09-1.16l160.32,.66c6.28-.3,10.66,3.31,12.75,8.08,.9,2.06,1.36,4.33,1.36,6.6,0,2.28-.48,4.55-1.46,6.59-2.21,4.58-6.93,7.96-14.52,7.5l-150.02-.87c-4.52,0-7.55-2.01-8.96-4.65-.6-1.13-.91-2.38-.91-3.64,0-1.26,.31-2.53,.92-3.7,1.52-2.9,4.94-5.24,10.36-5.42l139.82,1.31c.6,0,1.09,.53,1.08,1.17,0,.64-.5,1.16-1.1,1.15l-139.75-1.31c-4.53,.15-7.32,1.98-8.5,4.23-.43,.82-.65,1.7-.65,2.57,0,.86,.21,1.72,.63,2.49,1.05,1.97,3.43,3.47,7.06,3.47,50.03,0,100.1,.73,150.13,.87,6.57,.4,10.61-2.41,12.45-6.24,.82-1.7,1.22-3.61,1.22-5.53,0-1.93-.39-3.87-1.16-5.63-1.74-3.98-5.41-6.99-10.67-6.74l-160.41-.66Z"/>
        </g>
      </g>
    </g>
  </g>
  <g class="cls-58">
    <g>
      <g>
        <path class="cls-7" d="M804.33,512.34c-17.25,102.72,31.47,210.93,155.7,340.08l59.04-27.75c-59.7-173.71-110.23-270.16-214.74-312.33h0Z"/>
        <path class="cls-4" d="M854.09,719.22c25.67,42.17,60.8,86.29,105.93,133.2l59.04-27.75c-42.89-124.7-80.98-209.55-137.74-263.14,132.61,206.33,94.29,260.12-27.23,157.69h0Z"/>
        <path class="cls-43" d="M1000.91,834.64c-.44,.08-.89-.16-1.06-.59-52.44-131.52-108.37-222.83-193.03-315.16-.36-.39-.33-1,.06-1.36,.39-.36,1-.33,1.36,.06,84.83,92.51,140.87,183.99,193.4,315.75,.2,.5-.04,1.06-.54,1.25-.06,.03-.13,.04-.19,.05Z"/>
      </g>
      <path class="cls-43" d="M960.02,852.42l59.04-27.75c-12.85-37.39-25.28-71.2-37.91-101.66-.63-.44-1.27-.89-1.9-1.33-1.14-.79-2.29-1.59-3.43-2.37-1.55-1.07-3.1-2.13-4.65-3.17-1.04-.69-2.07-1.37-3.1-2.06-2.74-1.82-5.48-3.61-8.21-5.36-1.02-.65-2.03-1.31-3.05-1.95-1.61-1.02-3.23-2.03-4.84-3.02-.91-.56-1.81-1.11-2.72-1.66-2.93-1.78-5.85-3.53-8.77-5.23-.87-.5-1.74-1.02-2.6-1.51-1.66-.95-3.31-1.89-4.97-2.82-.88-.49-1.76-.97-2.64-1.46-3.23-1.78-6.46-3.51-9.68-5.19-.53-.28-1.06-.56-1.6-.84-1.69-.87-3.38-1.72-5.07-2.56-.86-.43-1.72-.86-2.58-1.28-5.45-2.67-10.89-5.2-16.34-7.57-.87-.38-1.74-.76-2.61-1.13-1.67-.71-3.34-1.42-5-2.11-.76-.31-1.51-.61-2.27-.92-2.98-1.2-5.97-2.36-8.95-3.48-.93-.35-1.85-.7-2.78-1.03-1.6-.58-3.21-1.16-4.82-1.71-1-.35-2.01-.69-3.01-1.02-1.29-.43-2.57-.9-3.86-1.31,.03,.02,.05,.03,.08,.05-13.84-4.49-27.77-8.02-41.87-10.62,23.65,62.52,69.76,128.94,140.12,202.08Z"/>
    </g>
    <g>
      <g>
        <path class="cls-7" d="M102.75,399.83c42.98,88.89,18.52,197.76-79.58,342.74l-68.31-11.63C-25.16,560.39,4.05,461.74,102.75,399.83h0Z"/>
        <path class="cls-4" d="M101.21,598.09c-16.5,43.95-42.4,91.81-78.04,144.48l-68.31-11.63c14.38-122.44,33.44-207.78,79.58-269.13C-53.62,678.45-.57,718.32,101.21,598.09h0Z"/>
        <path class="cls-43" d="M-23.79,735.83c.48-.03,.89-.35,.97-.78C-.15,604.27,35.94,509.03,101.74,406.32c.28-.44,.1-.98-.39-1.22-.5-.24-1.13-.07-1.41,.36C34,508.38-2.16,603.79-24.87,734.81c-.08,.49,.3,.95,.87,1.01,.08,.01,.14,.01,.21,.01Z"/>
      </g>
      <path class="cls-4" d="M23.17,742.57c54.96-81.22,86.79-151.1,96.61-212.48-62.79,24.28-110.8,69.72-156.76,139.41-2.95,19.37-5.63,39.83-8.16,61.44l68.31,11.63Z"/>
    </g>
    <g>
      <path class="cls-35" d="M167.83,521.11c6.21,114.28-60.33,226.41-211.83,352.16l-61.05-37.62C-18.46,653.39,48.54,554.34,167.83,521.11h0Z"/>
      <path class="cls-26" d="M88.03,740.87c-33.2,42.84-76.99,86.75-132.03,132.41l-61.05-37.62c62.15-130.8,114.2-218.79,182.75-270.3-170.14,208.95-134.92,272.36,10.34,175.51h0Z"/>
      <path class="cls-50" d="M-87.02,847.6c.28,0,.55-.15,.69-.42C-12.84,710,59.49,617.2,163.31,526.85c.33-.29,.37-.79,.08-1.13-.29-.33-.79-.36-1.12-.07C58.29,616.13-14.14,709.07-87.74,846.43c-.21,.39-.06,.87,.33,1.08,.12,.07,.26,.09,.39,.09Z"/>
      <path class="cls-50" d="M113.12,663.28s.05-.02,.07-.04c-1.1,.24-2.19,.51-3.29,.76-.84,.19-1.69,.38-2.53,.58-1.37,.32-2.74,.66-4.1,1-.78,.2-1.56,.4-2.34,.61-2.57,.67-5.15,1.38-7.72,2.12-.62,.18-1.24,.35-1.86,.54-1.44,.42-2.87,.87-4.31,1.31-.73,.23-1.46,.46-2.19,.7-4.69,1.5-9.38,3.12-14.09,4.86-.72,.27-1.44,.54-2.17,.81-1.47,.55-2.94,1.12-4.42,1.69-.39,.15-.78,.31-1.16,.47-2.88,1.14-5.76,2.33-8.66,3.56-.72,.3-1.44,.61-2.16,.92-1.46,.63-2.92,1.27-4.38,1.92-.7,.31-1.41,.64-2.12,.96-2.62,1.19-5.25,2.41-7.89,3.67-.73,.35-1.46,.69-2.19,1.05-1.43,.7-2.87,1.4-4.31,2.12-.84,.42-1.68,.84-2.53,1.27-2.54,1.28-5.08,2.59-7.63,3.94-.77,.41-1.55,.81-2.32,1.22-1.39,.74-2.78,1.5-4.18,2.26-.95,.52-1.91,1.04-2.86,1.57-1.37,.76-2.73,1.51-4.11,2.29-1.24,.7-2.49,1.42-3.74,2.14-2.03,1.16-4.06,2.35-6.1,3.55-1.09,.64-2.18,1.28-3.27,1.94-1.3,.78-2.61,1.56-3.92,2.36-1.3,.79-2.6,1.59-3.9,2.39-1.9,1.17-3.8,2.36-5.71,3.56-1.32,.83-2.64,1.67-3.97,2.51-1.23,.79-2.46,1.58-3.7,2.38-1.39,.9-2.79,1.81-4.19,2.73-1.38,.9-2.76,1.81-4.14,2.73-1.93,1.28-3.87,2.58-5.81,3.9-1.12,.76-2.25,1.53-3.38,2.3-1.53,1.05-3.07,2.1-4.61,3.17-1.04,.72-2.07,1.43-3.12,2.16-2.36,1.64-4.72,3.31-7.1,5-.97,.68-1.94,1.39-2.91,2.08-.31,.22-.63,.45-.94,.68-13.74,25.94-27.7,54.13-42.2,84.66l53.99,33.26c2.72-.93,5.43-1.87,8.12-2.82,1.12-.4,2.23-.8,3.35-1.2,2.29-.82,4.57-1.64,6.83-2.47,.97-.36,1.95-.72,2.92-1.07,82.73-70.71,138.34-137.22,169.07-202.38-8.71,1-17.4,2.43-26.09,4.3Z"/>
    </g>
    <g>
      <path class="cls-34" d="M235.55,664.6c-42.32,106.34-149.78,180.19-340.06,230.76l-39.63-59.76C10.94,706.5,113.33,644.71,235.55,664.6h0Z"/>
      <path class="cls-7" d="M70.9,830.59c-48.11,24.95-106.29,46.43-175.41,64.77l-39.63-59.76c111.3-92.65,195.48-150.67,279.31-168.66-242.12,118.26-236.76,190.61-64.26,163.65h0Z"/>
      <path class="cls-44" d="M-132.79,854.01c.26,.11,.56,.09,.8-.09,124.28-93.67,228.87-147.56,361.02-186,.42-.12,.67-.56,.54-.99-.12-.42-.56-.66-.99-.54-132.35,38.5-237.09,92.46-361.54,186.26-.35,.27-.42,.76-.16,1.12,.08,.11,.19,.19,.31,.25Z"/>
    </g>
    <g>
      <path class="cls-29" d="M707.58,642.77c37.91,133.57,158.44,236.01,381.82,320.6l55.23-67.22c-171.17-175.01-287.09-262.25-437.05-253.38h0Z"/>
      <path class="cls-34" d="M885.73,863.48c54.97,36.07,122.52,69.2,203.67,99.89l55.23-67.22c-122.84-125.59-217.25-206.04-316.19-238.12,277.55,172.7,262.12,259.35,57.29,205.45h0Z"/>
      <path class="cls-49" d="M1128.64,916.96c-.32,.11-.69,.04-.96-.21-138.38-128.44-257.94-206.42-412.66-269.18-.5-.2-.73-.76-.53-1.26,.2-.49,.76-.73,1.26-.53,154.96,62.85,274.68,140.95,413.25,269.55,.39,.37,.42,.98,.05,1.37-.12,.12-.26,.21-.41,.26Z"/>
    </g>
  </g>
</svg>